<?xml version="1.0" encoding="iso-8859-1"?>
<!-- Generator: Adobe Illustrator 16.0.0, SVG Export Plug-In . SVG Version: 6.00 Build 0)  -->
<!DOCTYPE svg PUBLIC "-//W3C//DTD SVG 1.1//EN" "http://www.w3.org/Graphics/SVG/1.1/DTD/svg11.dtd">
<svg version="1.1" xmlns="http://www.w3.org/2000/svg" xmlns:xlink="http://www.w3.org/1999/xlink" x="0px" y="0px" width="512px"
	 height="512px" viewBox="0 0 512 512" style="enable-background:new 0 0 512 512;" xml:space="preserve">
<g id="E_-_309_x2C__mechanical_x2C__gears">
	<g>
		<path d="M256,146c-60.654,0-110,49.346-110,110s49.346,110,110,110s110-49.346,110-110S316.654,146,256,146z M256,346
			c-49.626,0-90-40.374-90-90s40.374-90,90-90c49.627,0,90,40.374,90,90S305.627,346,256,346z"/>
		<path d="M256,204.333c-28.488,0-51.666,23.178-51.666,51.667c0,28.489,23.178,51.667,51.666,51.667
			c28.49,0,51.668-23.178,51.668-51.667C307.668,227.511,284.49,204.333,256,204.333z M256,287.667
			c-17.461,0-31.666-14.206-31.666-31.667s14.205-31.667,31.666-31.667c17.462,0,31.668,14.206,31.668,31.667
			S273.462,287.667,256,287.667z"/>
		<path d="M256,136c17.462,0,31.668-14.206,31.668-31.667c0-17.461-14.206-31.667-31.668-31.667
			c-17.461,0-31.666,14.206-31.666,31.667C224.334,121.794,238.539,136,256,136z M256,92.667c6.434,0,11.668,5.234,11.668,11.667
			S262.434,116,256,116c-6.433,0-11.666-5.233-11.666-11.667S249.567,92.667,256,92.667z"/>
		<path d="M256,384.333c-17.461,0-31.666,14.206-31.666,31.667s14.205,31.667,31.666,31.667c17.462,0,31.668-14.206,31.668-31.667
			S273.462,384.333,256,384.333z M256,427.667c-6.433,0-11.666-5.233-11.666-11.667s5.233-11.667,11.666-11.667
			c6.434,0,11.668,5.233,11.668,11.667S262.434,427.667,256,427.667z"/>
		<path d="M388.584,172.367c12.346-12.347,12.346-32.436-0.001-44.783c-12.376-12.375-32.406-12.377-44.784,0
			c-12.346,12.347-12.346,32.436,0,44.783C356.175,184.743,376.204,184.745,388.584,172.367z M357.941,141.726
			c4.559-4.56,11.938-4.559,16.5,0c4.549,4.549,4.549,11.951,0,16.499c-4.56,4.558-11.939,4.562-16.5,0
			C353.393,153.677,353.393,146.275,357.941,141.726z"/>
		<path d="M123.417,347.966c-12.347,12.347-12.347,32.437,0,44.783c5.981,5.981,13.934,9.275,22.393,9.275
			c17.5,0,31.667-14.162,31.667-31.667c0-8.459-3.294-16.411-9.275-22.392C155.826,335.59,135.794,335.589,123.417,347.966z
			 M145.81,382.024c-3.116,0-6.046-1.214-8.25-3.418c-4.549-4.549-4.549-11.949,0-16.498c4.56-4.561,11.938-4.562,16.5,0
			c2.203,2.203,3.417,5.133,3.417,8.249C157.477,376.804,152.258,382.024,145.81,382.024z"/>
		<path d="M380.168,260.167c0,17.461,14.205,31.666,31.666,31.666s31.666-14.205,31.666-31.666
			c0-17.461-14.205-31.667-31.666-31.667S380.168,242.706,380.168,260.167z M423.5,260.167c0,6.433-5.233,11.666-11.666,11.666
			c-6.434,0-11.666-5.233-11.666-11.666c0-6.434,5.232-11.667,11.666-11.667C418.267,248.5,423.5,253.733,423.5,260.167z"/>
		<path d="M131.834,260.167c0-17.461-14.206-31.667-31.667-31.667S68.5,242.706,68.5,260.167c0,17.461,14.206,31.666,31.667,31.666
			S131.834,277.628,131.834,260.167z M100.167,271.833c-6.434,0-11.667-5.233-11.667-11.666c0-6.434,5.233-11.667,11.667-11.667
			c6.433,0,11.667,5.233,11.667,11.667C111.834,266.6,106.6,271.833,100.167,271.833z"/>
		<path d="M343.799,347.966c-12.346,12.347-12.346,32.437,0,44.782c12.375,12.377,32.405,12.379,44.785,0.001
			c12.346-12.347,12.346-32.437,0-44.783C376.207,335.592,356.178,335.587,343.799,347.966z M374.441,378.606
			c-4.561,4.561-11.938,4.562-16.5,0c-4.549-4.549-4.549-11.949,0-16.499c4.562-4.56,11.938-4.561,16.5,0.001
			C378.99,366.657,378.99,374.058,374.441,378.606z"/>
		<path d="M168.201,172.368c12.347-12.347,12.347-32.437,0-44.784c-12.376-12.375-32.406-12.377-44.784,0
			c-12.346,12.347-12.346,32.436,0,44.783C135.794,184.743,155.823,184.745,168.201,172.368z M137.56,141.727
			c4.56-4.56,11.94-4.56,16.499,0c4.549,4.548,4.549,11.95,0,16.499c-4.559,4.56-11.939,4.56-16.499,0
			C133.011,153.677,133.011,146.275,137.56,141.727z"/>
		<path d="M487.789,206.161l-51.189-9.307c-3.002-9.169-6.712-18.118-11.079-26.727l29.62-42.785
			c2.752-3.974,2.268-9.346-1.15-12.763L397.422,58.01c-3.417-3.417-8.788-3.903-12.763-1.151L341.873,86.48
			c-8.609-4.368-17.559-8.077-26.727-11.079l-9.307-51.19C304.975,19.456,300.834,16,296,16h-80c-4.833,0-8.974,3.456-9.839,8.211
			l-9.307,51.19c-9.168,3.002-18.117,6.711-26.727,11.079l-42.786-29.621c-3.973-2.751-9.346-2.267-12.763,1.15L58.01,114.579
			c-3.417,3.417-3.901,8.79-1.15,12.763l29.621,42.786c-4.368,8.609-8.077,17.559-11.079,26.727l-51.19,9.307
			C19.456,207.026,16,211.167,16,216v80c0,4.833,3.456,8.975,8.211,9.839l51.19,9.307c3.002,9.169,6.711,18.118,11.079,26.728
			l-29.621,42.785c-2.751,3.974-2.267,9.346,1.151,12.764l56.568,56.568c3.417,3.418,8.789,3.901,12.764,1.15l42.785-29.621
			c8.608,4.368,17.558,8.077,26.727,11.08l9.307,51.189c0.865,4.755,5.006,8.211,9.839,8.211h80c4.834,0,8.975-3.456,9.84-8.211
			l9.307-51.189c9.168-3.002,18.118-6.712,26.727-11.08l42.785,29.621c3.975,2.752,9.348,2.267,12.764-1.15l56.568-56.568
			c3.418-3.418,3.902-8.79,1.15-12.764l-29.62-42.785c4.367-8.609,8.077-17.559,11.079-26.728l51.189-9.307
			c4.756-0.864,8.211-5.006,8.211-9.839v-80C496,211.167,492.545,207.026,487.789,206.161z M476,287.654l-48.949,8.899
			c-3.729,0.678-6.753,3.405-7.813,7.044c-3.447,11.845-8.211,23.338-14.159,34.158c-1.827,3.322-1.616,7.393,0.542,10.51
			l28.326,40.915l-44.766,44.766l-40.916-28.326c-3.117-2.157-7.188-2.368-10.509-0.542c-10.821,5.948-22.313,10.713-34.158,14.16
			c-3.639,1.059-6.366,4.084-7.044,7.813l-8.9,48.949h-63.309l-8.899-48.949c-0.678-3.729-3.405-6.753-7.044-7.813
			c-11.845-3.447-23.337-8.212-34.158-14.16c-3.322-1.827-7.392-1.617-10.509,0.542l-40.916,28.326l-44.766-44.766l28.326-40.915
			c2.158-3.117,2.368-7.187,0.542-10.509c-5.948-10.822-10.713-22.314-14.16-34.159c-1.059-3.639-4.084-6.366-7.813-7.044
			L36,287.654v-63.309l48.949-8.899c3.729-0.678,6.754-3.405,7.813-7.044c3.447-11.844,8.212-23.336,14.16-34.158
			c1.826-3.322,1.616-7.392-0.542-10.509L78.054,122.82l44.767-44.766l40.915,28.326c3.117,2.158,7.188,2.368,10.509,0.542
			c10.821-5.948,22.314-10.712,34.158-14.16c3.639-1.059,6.366-4.084,7.044-7.813L224.346,36h63.309l8.9,48.949
			c0.678,3.729,3.405,6.753,7.044,7.813c11.845,3.447,23.337,8.211,34.158,14.16c3.321,1.826,7.392,1.615,10.509-0.542
			l40.916-28.326l44.766,44.766l-28.326,40.916c-2.158,3.118-2.369,7.187-0.542,10.509c5.948,10.821,10.712,22.313,14.159,34.158
			c1.06,3.639,4.084,6.366,7.813,7.044L476,224.346V287.654z"/>
	</g>
</g>
<g id="Layer_1">
</g>
</svg>
