<?xml version="1.0" encoding="UTF-8" standalone="no"?> <svg width="101" height="101" viewBox="0 0 101 101" fill="none" xmlns="http://www.w3.org/2000/svg">
<path d="M82.256 75.5614L73.54 73.4164L82.297 60.3354C82.758 59.6474 82.573 58.7154 81.885 58.2544C81.198 57.7944 80.266 57.9774 79.805 58.6664L69.857 73.5264C69.585 73.9334 69.528 74.4464 69.705 74.9024C69.882 75.3594 70.269 75.7004 70.745 75.8174L79.573 77.9894L70.859 92.6184C70.435 93.3304 70.669 94.2504 71.38 94.6744C71.62 94.8184 71.885 94.8854 72.147 94.8854C72.658 94.8854 73.156 94.6244 73.437 94.1534L83.187 77.7844C83.43 77.3764 83.465 76.8764 83.282 76.4384C83.098 76.0004 82.718 75.6754 82.256 75.5614Z" fill="black" stroke="black" stroke-width="2.2"/>
<path d="M50 5.11426C25.108 5.11426 4.857 25.3643 4.857 50.2553C4.857 67.9423 14.77 88.0833 33.798 92.3733L36.25 92.7853C36.292 92.7923 36.334 92.7973 36.377 92.8013C37.704 92.9093 38.92 92.9653 40.036 92.9653C44.39 92.9653 47.22 92.1223 49.189 90.3063C51.314 88.3483 52.304 85.3363 52.304 80.8273V71.3163C62.672 70.1633 70.763 61.3533 70.763 50.6803V37.2523C70.763 36.4253 70.094 35.7553 69.268 35.7523L62.194 35.7283V23.4693C62.194 22.6403 61.522 21.9693 60.694 21.9693C59.866 21.9693 59.194 22.6403 59.194 23.4693V35.7183L40.8 35.6563V23.4703C40.8 22.6413 40.128 21.9703 39.3 21.9703C38.472 21.9703 37.8 22.6413 37.8 23.4703V35.6463L30.733 35.6223C30.338 35.6093 29.952 35.7783 29.67 36.0603C29.388 36.3423 29.229 36.7243 29.229 37.1223V50.6813C29.229 61.9013 38.176 71.0493 49.305 71.4183V80.8283C49.305 84.4403 48.622 86.7513 47.158 88.1013C45.39 89.7283 42.159 90.2563 36.684 89.8173L34.377 89.4313C16.966 85.5043 7.856 66.7513 7.856 50.2563C7.856 27.0203 26.761 8.11526 49.999 8.11526C73.237 8.11526 92.143 27.0193 92.143 50.2563C92.143 51.0853 92.815 51.7563 93.643 51.7563C94.471 51.7563 95.143 51.0853 95.143 50.2563C95.143 25.3643 74.892 5.11426 50 5.11426ZM32.229 50.6793V38.6253L39.152 38.6483C39.202 38.6533 39.25 38.6633 39.302 38.6633C39.35 38.6633 39.395 38.6533 39.442 38.6493L67.765 38.7453V50.6783C67.765 60.4773 59.794 68.4503 49.997 68.4503C40.2 68.4503 32.229 60.4783 32.229 50.6793Z" fill="black" stroke="black" stroke-width="2.2"/>
</svg>
