<?xml version="1.0" encoding="UTF-8" standalone="no"?> <svg width="101" height="101" viewBox="0 0 101 101" fill="none" xmlns="http://www.w3.org/2000/svg">
<path d="M65.503 73.8956L63.503 73.8926C63.502 73.8926 63.501 73.8926 63.5 73.8926C62.673 73.8926 62.001 74.5626 62 75.3906C61.999 76.2186 62.669 76.8916 63.497 76.8926L65.497 76.8956C65.498 76.8956 65.499 76.8956 65.5 76.8956C66.327 76.8956 66.999 76.2256 67 75.3976C67.001 74.5706 66.331 73.8976 65.503 73.8956Z" fill="black" stroke="black" stroke-width="2.2"/>
<path d="M72.503 73.8956L70.503 73.8926C70.502 73.8926 70.501 73.8926 70.5 73.8926C69.673 73.8926 69.001 74.5626 69 75.3906C68.999 76.2186 69.669 76.8916 70.497 76.8926L72.497 76.8956C72.498 76.8956 72.499 76.8956 72.5 76.8956C73.327 76.8956 73.999 76.2256 74 75.3976C74.001 74.5706 73.331 73.8976 72.503 73.8956Z" fill="black" stroke="black" stroke-width="2.2"/>
<path d="M79.503 73.8956L77.503 73.8926C77.502 73.8926 77.501 73.8926 77.5 73.8926C76.673 73.8926 76.001 74.5626 76 75.3906C75.999 76.2186 76.669 76.8916 77.497 76.8926L79.497 76.8956C79.498 76.8956 79.499 76.8956 79.5 76.8956C80.327 76.8956 80.999 76.2256 81 75.3976C81.001 74.5706 80.331 73.8976 79.503 73.8956Z" fill="black" stroke="black" stroke-width="2.2"/>
<path d="M65.503 80.8956L63.503 80.8926C63.502 80.8926 63.501 80.8926 63.5 80.8926C62.673 80.8926 62.001 81.5626 62 82.3906C61.999 83.2186 62.669 83.8916 63.497 83.8926L65.497 83.8956C65.498 83.8956 65.499 83.8956 65.5 83.8956C66.327 83.8956 66.999 83.2256 67 82.3976C67.001 81.5706 66.331 80.8976 65.503 80.8956Z" fill="black" stroke="black" stroke-width="2.2"/>
<path d="M72.503 80.8956L70.503 80.8926C70.502 80.8926 70.501 80.8926 70.5 80.8926C69.673 80.8926 69.001 81.5626 69 82.3906C68.999 83.2186 69.669 83.8916 70.497 83.8926L72.497 83.8956C72.498 83.8956 72.499 83.8956 72.5 83.8956C73.327 83.8956 73.999 83.2256 74 82.3976C74.001 81.5706 73.331 80.8976 72.503 80.8956Z" fill="black" stroke="black" stroke-width="2.2"/>
<path d="M79.503 80.8956L77.503 80.8926C77.502 80.8926 77.501 80.8926 77.5 80.8926C76.673 80.8926 76.001 81.5626 76 82.3906C75.999 83.2186 76.669 83.8916 77.497 83.8926L79.497 83.8956C79.498 83.8956 79.499 83.8956 79.5 83.8956C80.327 83.8956 80.999 83.2256 81 82.3976C81.001 81.5706 80.331 80.8976 79.503 80.8956Z" fill="black" stroke="black" stroke-width="2.2"/>
<path d="M88.563 56.3816C88.282 56.0996 87.901 55.9416 87.502 55.9406L55.561 55.8926C55.56 55.8926 55.56 55.8926 55.559 55.8926C54.732 55.8926 54.06 56.5626 54.059 57.3906L54 94.3426C53.999 94.7406 54.157 95.1226 54.438 95.4046C54.719 95.6866 55.1 95.8446 55.499 95.8456L87.439 95.8936C87.44 95.8936 87.44 95.8936 87.441 95.8936C88.268 95.8936 88.94 95.2236 88.941 94.3956L89.001 57.4436C89.001 57.0456 88.843 56.6636 88.563 56.3816ZM85.998 58.9386L85.987 65.8926H57.046L57.057 58.8946L85.998 58.9386ZM57.002 92.8476L57.041 68.8926H85.982L85.943 92.8906L57.002 92.8476Z" fill="black" stroke="black" stroke-width="2.2"/>
<path d="M55.278 46.294C55.638 45.548 55.327 44.651 54.581 44.291C50.526 42.33 46.174 41.335 41.643 41.335C25.163 41.335 11.754 54.819 11.754 71.393C11.754 72.222 12.426 72.893 13.254 72.893H44.499C45.327 72.893 45.999 72.222 45.999 71.393C45.999 70.564 45.327 69.893 44.499 69.893H14.795C15.571 55.669 27.316 44.335 41.643 44.335C45.717 44.335 49.63 45.229 53.274 46.991C54.022 47.352 54.918 47.038 55.278 46.294Z" fill="black" stroke="black" stroke-width="2.2"/>
<path d="M42.241 37.9116C51.898 37.9116 59.755 30.0566 59.755 20.4016C59.755 10.7476 51.899 2.89258 42.241 2.89258C32.589 2.89258 24.735 10.7466 24.735 20.4016C24.735 30.0566 32.589 37.9116 42.241 37.9116ZM42.241 5.89258C50.244 5.89258 56.755 12.4016 56.755 20.4016C56.755 28.4026 50.244 34.9116 42.241 34.9116C34.242 34.9116 27.735 28.4026 27.735 20.4016C27.735 12.4016 34.242 5.89258 42.241 5.89258Z" fill="black" stroke="black" stroke-width="2.2"/>
</svg>
